<svg fill="none" height="88" viewBox="0 0 93 88" width="93" xmlns="http://www.w3.org/2000/svg"><g clip-rule="evenodd" fill="#fff" fill-rule="evenodd"><path d="m90.9556 24.1284h-4.0678l.7835-4.0257c.2013-1.0339-.5105-1.9076-1.5552-1.9076-1.0448 0-2.0987.8737-2.2998 1.9076l-.7832 4.0257h-4.0678c-1.0444 0-2.0959.8738-2.297 1.9077-.2011 1.0338.5108 1.9076 1.5554 1.9076h4.0675l-.7834 4.0257c-.2011 1.0339.5107 1.9077 1.5554 1.9077 1.0446 0 2.0984-.8738 2.2972-1.9077l.7835-4.0257h4.0673c1.0425 0 2.0964-.8738 2.2975-1.9076.2054-1.0316-.5085-1.9077-1.5531-1.9077z"/><path d="m43.9319 13.2293c-.0323-2.1616-.2935-5.16714-1.3104-7.76555 3.2725.613 4.8834 4.27732 5.5628 6.46175-1.2595.3865-2.6947.8257-4.2524 1.3038zm-17.1299 28.6695c.2912 4.5678 12.4337 5.5651 13.1155 16.2652.5362 8.4174-4.5113 14.1747-11.7843 14.6296-8.7291.5446-13.5339-4.5516-13.5339-4.5516l1.8489-7.7884s4.8371 3.6118 8.7082 3.3691c2.5284-.1576 3.432-2.1934 3.3419-3.6344-.379-5.9587-10.2659-5.6088-10.8923-15.3986-.5246-8.239 4.9412-16.5877 17.0052-17.3423 4.6476-.2905 7.0281.8829 7.0281.8829l-2.7595 10.2129s-3.0761-1.3863-6.7253-1.1596c-5.3502.3408-5.408 3.6801-5.3525 4.5152zm8.3893-39.05404c1.0123-.02059 1.8651.199 2.5931.67248-1.1648.59928-2.2927 1.45932-3.3488 2.58011-2.7387 2.90721-4.8372 7.42245-5.6738 11.77755-2.6116.8005-5.1654 1.5826-7.5134 2.3033 1.4814-6.8551 7.2869-17.14359 13.9429-17.33344zm5.8748 11.26284c-2.8704.8804-6.0042 1.8413-9.1497 2.8043.8852-3.351 2.5608-6.6882 4.62-8.87489.7649-.81429 1.8373-1.72008 3.1061-2.23931 1.1948 2.46118 1.4514 5.9517 1.4236 8.3099zm12.5262-3.8405c-.0069.0023-.9938.3042-2.6624.8166-.2773-.8946-.6887-1.99482-1.2734-3.0996-1.8859-3.56116-4.6499-5.44821-7.9872-5.45301h-.0115c-.2312 0-.4623.02058-.6934.0414-.097-.11689-.1964-.23331-.3027-.34311-1.4537-1.539374-3.3211-2.2898498-5.5536-2.22557555-4.3126.12351655-8.6066 3.20433555-12.0871 8.67816555-2.4521 3.85163-4.3126 8.69193-4.8418 12.43623-4.9504 1.5165-8.41476 2.5801-8.48872 2.603-2.49831.7754-2.57688.8532-2.90506 3.184-.24729 1.7635-6.78542 51.8082-6.78542 51.8082l54.251 9.2866v-77.8429c-.2681.0183-.5084.0663-.6587.11z"/><path d="m56.0444 87.7896 22.5056-5.5376s-9.6905-64.8415-9.7505-65.2875c-.0624-.4437-.4553-.6908-.7789-.7182-.3235-.0275-6.6606-.1213-6.6606-.1213s-3.8642-3.7123-5.3156-5.119z"/></g></svg>